<?xml version="1.0" encoding="UTF-8"?>
<svg width="1050" height="300" preserveAspectRatio="xMidYMid" version="1.0" viewBox="0 0 1050 300" xmlns="http://www.w3.org/2000/svg">
 <g transform="translate(14.408 19.484)">
  <g transform="translate(-191.73 -285.93)">
   <g fill="none" stroke-linecap="round" stroke-width="5">
    <g stroke="#071d46">
     <path d="m345.26 394.04 56.71-41.436"/>
     <path d="m345.26 394.04 21.744 70.13"/>
     <path d="m275.7 415.11 1.1468 50.375"/>
    </g>
    <path d="m234.74 440.8-26.487-74.985" stroke="#1460af"/>
   </g>
   <path d="m331.5 385.6c0-0.2 0.35-0.9 0.8-1.5 0.75-1.1 0.75-1.25-0.15-2.25-0.5-0.6-1.05-1.2-1.2-1.35-0.6-0.5-12.75-14.75-14.15-16.65-2.1-2.75-2.75-2.95-5.6-1.9-1.35 0.5-3.4 1.1-4.55 1.3-1.95 0.3-2.15 0.25-2.15-0.7 0-0.7 0.3-1.05 0.95-1.05 0.5 0 1.9-0.35 3.05-0.75 1.2-0.4 3.35-0.9 4.85-1.05 2.6-0.35 2.65-0.3 2.65 0.95 0 1 0.3 1.3 1.3 1.45 0.75 0.1 1.6 0.6 1.9 1.15s0.85 1.2 1.2 1.4c0.3 0.2 0.6 0.95 0.6 1.6 0 0.85 0.3 1.25 0.9 1.25 1.25 0 2.1 0.95 2.1 2.35 0 0.75 0.3 1.15 0.9 1.15 1.3 0 2.1 1 2.1 2.55 0 1.15 0.25 1.4 1.4 1.55 1.05 0.1 1.4 0.45 1.5 1.55 0.1 0.8 0.45 1.35 0.95 1.35 0.4 0 1.3 0.5 1.95 1.15 0.95 0.9 1.2 1.6 1.2 4 0 2.7-0.05 2.85-1.25 2.85-0.7 0-1.25-0.15-1.25-0.4z" fill="#119097"/>
   <g fill="#1460af" stroke-width="20">
    <path d="m224.87 471.57a16.516 16.516 0 0 1-16.516 16.516 16.516 16.516 0 0 1-16.516-16.516 16.516 16.516 0 0 1 16.516-16.516 16.516 16.516 0 0 1 16.516 16.516z"/>
    <path d="m293.37 465.48a16.516 16.516 0 0 1-16.516 16.516 16.516 16.516 0 0 1-16.516-16.516 16.516 16.516 0 0 1 16.516-16.516 16.516 16.516 0 0 1 16.516 16.516z"/>
    <path d="m318.25 530.45a16.516 16.516 0 0 1-16.516 16.516 16.516 16.516 0 0 1-16.516-16.516 16.516 16.516 0 0 1 16.516-16.516 16.516 16.516 0 0 1 16.516 16.516z"/>
    <path d="m383.52 464.17a16.516 16.516 0 0 1-16.516 16.516 16.516 16.516 0 0 1-16.516-16.516 16.516 16.516 0 0 1 16.516-16.516 16.516 16.516 0 0 1 16.516 16.516z"/>
    <path d="m418.27 476.02a16.516 16.516 0 0 1-16.516 16.516 16.516 16.516 0 0 1-16.516-16.516 16.516 16.516 0 0 1 16.516-16.516 16.516 16.516 0 0 1 16.516 16.516z"/>
    <path d="m418.48 352.6a16.516 16.516 0 0 1-16.516 16.516 16.516 16.516 0 0 1-16.516-16.516 16.516 16.516 0 0 1 16.516-16.516 16.516 16.516 0 0 1 16.516 16.516z"/>
   </g>
   <g fill="#071d46" stroke-width="20">
    <path d="m224.77 365.82a16.516 16.516 0 0 1-16.516 16.516 16.516 16.516 0 0 1-16.516-16.516 16.516 16.516 0 0 1 16.516-16.516 16.516 16.516 0 0 1 16.516 16.516z"/>
    <path d="m292.22 415.11a16.516 16.516 0 0 1-16.516 16.516 16.516 16.516 0 0 1-16.516-16.516 16.516 16.516 0 0 1 16.516-16.516 16.516 16.516 0 0 1 16.516 16.516z"/>
    <path d="m320.77 346.83a16.516 16.516 0 0 1-16.516 16.516 16.516 16.516 0 0 1-16.516-16.516 16.516 16.516 0 0 1 16.516-16.516 16.516 16.516 0 0 1 16.516 16.516z"/>
    <path d="m361.77 394.04a16.516 16.516 0 0 1-16.516 16.516 16.516 16.516 0 0 1-16.516-16.516 16.516 16.516 0 0 1 16.516-16.516 16.516 16.516 0 0 1 16.516 16.516z"/>
    <path d="m320.33 302.45a16.516 16.516 0 0 1-16.516 16.516 16.516 16.516 0 0 1-16.516-16.516 16.516 16.516 0 0 1 16.516-16.516 16.516 16.516 0 0 1 16.516 16.516z"/>
   </g>
   <g fill="none" stroke-linecap="round" stroke-width="5">
    <g stroke="#1460af">
     <path d="m208.28 399.79 0.0364 38.51"/>
     <path d="m234.74 440.8-26.387 30.765"/>
     <path d="m274.24 513.11-37.737-23.795"/>
     <path d="m301.73 530.45-24.884-64.966"/>
     <path d="m367 464.17-90.15 1.3182"/>
     <path d="m367 464.17 34.75 11.85"/>
     <path d="m329.98 515.08 36.243-19.726"/>
     <path d="m401.91 385.13-0.0977 55.861"/>
     <path d="m371.52 337.35-40.473-20.271"/>
     <path d="m238.63 345.74 39.239-25.927"/>
     <path d="m239.98 359.54 33.221-6.5686"/>
    </g>
    <g stroke="#071d46">
     <path d="m275.7 415.11 28.547-68.275"/>
     <path d="m275.7 415.11-67.453-49.294"/>
     <path d="m275.7 415.11 61.538 33.066"/>
     <path d="m345.26 394.04-41.006-47.202"/>
    </g>
   </g>
  </g>
  <g fill="#071d46" stroke-linecap="round" stroke-width="11.134" aria-label="datasophos">
   <path d="m328.98 168.14-0.42755-13.254v-86.508h8.551v99.762zm-25.511 1.7102q-9.4061 0-16.674-4.7031-7.2684-4.8456-11.401-13.254-4.133-8.551-4.133-19.382 0-10.974 4.133-19.382t11.401-13.112q7.2684-4.8456 16.674-4.8456 9.1211 0 15.962 4.8456 6.9833 4.7031 10.831 13.112 3.9905 8.4085 3.9905 19.382 0 10.831-3.9905 19.382-3.848 8.4085-10.831 13.254-6.8408 4.7031-15.962 4.7031zm1.7102-7.6959q6.8408 0 12.114-3.7054 5.2731-3.848 8.266-10.546 2.9929-6.6983 2.9929-15.392t-2.9929-15.392q-2.9928-6.6983-8.266-10.404-5.2731-3.848-12.256-3.848-7.4109 0-13.112 3.848-5.7007 3.7054-8.9786 10.404-3.1354 6.6983-3.1354 15.392t3.2779 15.392 8.9786 10.546q5.7007 3.7054 13.112 3.7054zm97.624 5.9857-0.71258-10.689v-27.506q0-9.1211-2.1378-14.964-1.9952-5.9857-6.4133-8.9786-4.2755-2.9929-11.259-2.9929-6.4133 0-10.831 2.5653-4.2755 2.5653-7.1258 7.981l-7.6959-3.4204q2.9928-5.1306 6.6983-8.4085 3.848-3.2779 8.551-4.8456 4.7031-1.7102 10.404-1.7102 9.5486 0 15.819 3.848 6.2708 3.848 9.4061 11.544 3.1354 7.6959 3.1354 19.382v38.195zm-21.948 1.7102q-12.542 0-19.667-5.7007-6.9833-5.8432-6.9833-16.104 0-10.546 6.9833-16.389 7.1258-5.8432 19.667-5.8432h21.378v7.8384h-20.237q-10.261 0-14.822 3.848-4.418 3.7054-4.418 10.546 0 6.5558 4.5605 10.261 4.7031 3.7054 12.969 3.7054 6.8408 0 11.686-2.7078 4.9881-2.8503 7.5534-8.266 2.5653-5.4156 2.5653-13.397h4.9881q0 14.537-6.9833 23.373-6.8408 8.836-19.24 8.836zm74.821 0q-9.8337 0-15.392-5.1306-5.5582-5.2731-5.5582-14.822v-75.249h8.551v75.249q0 5.7007 3.2779 8.9786 3.2779 3.1354 9.1211 3.1354 1.7102 0 3.2779-0.42755 1.7102-0.57007 4.8456-2.7078l3.5629 7.4109q-3.848 2.2803-6.4133 2.8503-2.5653 0.71258-5.2731 0.71258zm-33.634-65.13v-7.8384h43.895v7.8384zm104.61 63.42-0.71259-10.689v-27.506q0-9.1211-2.1378-14.964-1.9952-5.9857-6.4133-8.9786-4.2755-2.9929-11.259-2.9929-6.4133 0-10.831 2.5653-4.2755 2.5653-7.1258 7.981l-7.6959-3.4204q2.9929-5.1306 6.6983-8.4085 3.848-3.2779 8.551-4.8456 4.7031-1.7102 10.404-1.7102 9.5486 0 15.819 3.848 6.2708 3.848 9.4061 11.544 3.1354 7.6959 3.1354 19.382v38.195zm-21.948 1.7102q-12.541 0-19.667-5.7007-6.9833-5.8432-6.9833-16.104 0-10.546 6.9833-16.389 7.1258-5.8432 19.667-5.8432h21.378v7.8384h-20.237q-10.261 0-14.822 3.848-4.418 3.7054-4.418 10.546 0 6.5558 4.5606 10.261 4.7031 3.7054 12.969 3.7054 6.8408 0 11.686-2.7078 4.9881-2.8503 7.5534-8.266 2.5653-5.4156 2.5653-13.397h4.9881q0 14.537-6.9833 23.373-6.8408 8.836-19.24 8.836z"/>
   <path d="m577.81 169.85q-6.8408 0-12.827-1.9952-5.9857-2.1378-10.546-5.9857-4.5606-3.9905-7.1258-9.6912l16.104-7.4109q2.1378 3.4204 5.8432 5.9857 3.7054 2.4228 8.551 2.4228 4.7031 0 7.2684-1.2827 2.5653-1.4252 2.5653-3.9905 0-2.5653-2.1378-3.7054-1.9952-1.2827-5.5582-2.1378l-6.5558-1.7102q-10.261-2.7078-16.247-8.551-5.8432-5.9857-5.8432-13.682 0-10.974 6.9833-16.96 7.1258-5.9857 20.095-5.9857 6.6983 0 12.399 1.9952 5.8432 1.9952 9.9762 5.5582 4.133 3.5629 5.7007 8.266l-15.534 7.1258q-0.99762-2.8503-4.8456-4.5605-3.848-1.8527-7.6959-1.8527t-5.9857 1.7102q-1.9952 1.5677-1.9952 4.418 0 1.8527 1.9952 3.1354 1.9952 1.1401 5.7007 1.9952l9.2636 2.2803q6.9833 1.7102 11.116 5.5582 4.2755 3.7054 6.1282 8.4085 1.9952 4.5605 1.9952 8.9786 0 6.4133-3.848 11.401-3.7054 4.8456-10.261 7.5534-6.4133 2.7078-14.679 2.7078zm73.254 0q-10.831 0-19.382-4.7031-8.4085-4.8456-13.254-13.254-4.7031-8.4085-4.7031-19.382t4.7031-19.382 13.112-13.112q8.4085-4.8456 19.24-4.8456 10.974 0 19.382 4.8456 8.4085 4.7031 13.112 13.112 4.7031 8.4085 4.7031 19.382t-4.7031 19.382q-4.7031 8.4085-13.112 13.254-8.266 4.7031-19.097 4.7031zm0-17.387q5.2731 0 9.2636-2.5653 3.9905-2.5653 6.1282-6.9833 2.2803-4.5605 2.2803-10.404t-2.2803-10.261q-2.2803-4.5606-6.4133-7.1258-3.9905-2.5653-9.2636-2.5653-5.1306 0-9.2636 2.5653-3.9905 2.5653-6.2708 7.1258-2.2803 4.418-2.2803 10.261t2.2803 10.404q2.2803 4.418 6.4133 6.9833 4.133 2.5653 9.4061 2.5653zm50.023 44.18v-99.762h17.672l1.1401 13.112v86.65zm40.332-26.793q-8.9786 0-15.249-4.5605-6.1282-4.5605-9.4061-12.969-3.2779-8.4085-3.2779-19.81 0-11.544 3.2779-19.81 3.2779-8.4085 9.4061-12.969 6.2708-4.5605 15.249-4.5605 9.8337 0 16.96 4.5605 7.2684 4.5605 11.259 12.969 3.9905 8.266 3.9905 19.81 0 11.401-3.9905 19.81-3.9905 8.4085-11.259 12.969-7.1258 4.5605-16.96 4.5605zm-4.8456-17.245q5.1306 0 8.9786-2.5653 3.9905-2.5653 6.2708-7.1258 2.2803-4.5605 2.2803-10.404t-2.2803-10.404q-2.1378-4.5605-6.1282-6.9833-3.848-2.5653-8.9786-2.5653-4.8456 0-8.6935 2.5653-3.848 2.5653-5.9857 7.1258-2.1378 4.418-2.1378 10.261t2.1378 10.404q2.1378 4.5606 5.8432 7.1258 3.848 2.5653 8.6935 2.5653zm49.596 15.534v-99.762h18.812v99.762zm47.316 0v-36.484h18.812v36.484zm0-36.484q0-7.2684-1.7102-11.259-1.7102-3.9905-4.7031-5.7007-2.9929-1.8527-6.9833-1.8527-7.2684-0.14252-11.259 4.418-3.848 4.5606-3.848 13.539h-6.2708q0-11.401 3.2779-19.24 3.4204-7.981 9.4061-12.114 6.1282-4.2755 14.252-4.2755 8.551 0 14.394 3.4204 5.9857 3.4204 9.1211 10.689 3.1354 7.1258 3.1354 18.527v3.848zm67.268 38.195q-10.831 0-19.382-4.7031-8.4085-4.8456-13.254-13.254-4.7031-8.4085-4.7031-19.382t4.7031-19.382 13.112-13.112q8.4085-4.8456 19.24-4.8456 10.974 0 19.382 4.8456 8.4085 4.7031 13.112 13.112t4.7031 19.382-4.7031 19.382q-4.7031 8.4085-13.112 13.254-8.266 4.7031-19.097 4.7031zm0-17.387q5.2731 0 9.2636-2.5653 3.9905-2.5653 6.1282-6.9833 2.2803-4.5605 2.2803-10.404t-2.2803-10.261q-2.2803-4.5606-6.4133-7.1258-3.9905-2.5653-9.2636-2.5653-5.1306 0-9.2636 2.5653-3.9905 2.5653-6.2708 7.1258-2.2803 4.418-2.2803 10.261t2.2803 10.404q2.2803 4.418 6.4133 6.9833 4.133 2.5653 9.4061 2.5653zm75.961 17.387q-6.8408 0-12.827-1.9952-5.9857-2.1378-10.546-5.9857-4.5605-3.9905-7.1258-9.6912l16.104-7.4109q2.1378 3.4204 5.8432 5.9857 3.7054 2.4228 8.551 2.4228 4.7031 0 7.2684-1.2827 2.5653-1.4252 2.5653-3.9905 0-2.5653-2.1378-3.7054-1.9952-1.2827-5.5582-2.1378l-6.5558-1.7102q-10.261-2.7078-16.247-8.551-5.8432-5.9857-5.8432-13.682 0-10.974 6.9833-16.96 7.1258-5.9857 20.095-5.9857 6.6983 0 12.399 1.9952 5.8432 1.9952 9.9762 5.5582 4.133 3.5629 5.7006 8.266l-15.534 7.1258q-0.99761-2.8503-4.8456-4.5605-3.848-1.8527-7.6959-1.8527t-5.9857 1.7102q-1.9952 1.5677-1.9952 4.418 0 1.8527 1.9952 3.1354 1.9952 1.1401 5.7007 1.9952l9.2636 2.2803q6.9833 1.7102 11.116 5.5582 4.2755 3.7054 6.1282 8.4085 1.9953 4.5605 1.9953 8.9786 0 6.4133-3.848 11.401-3.7054 4.8456-10.261 7.5534-6.4133 2.7078-14.679 2.7078z"/>
  </g>
 </g>
</svg>
