<?xml version="1.0" encoding="UTF-8" standalone="no"?>
<svg
   version="1.0"
   width="1050"
   height="300"
   viewBox="0 0 1050 300"
   preserveAspectRatio="xMidYMid"
   id="svg119"
   sodipodi:docname="datasophos_wordmark.svg"
   inkscape:version="1.4 (e7c3feb1, 2024-10-09)"
   inkscape:export-filename="datasophos_wordmark.png"
   inkscape:export-xdpi="300"
   inkscape:export-ydpi="300"
   xmlns:inkscape="http://www.inkscape.org/namespaces/inkscape"
   xmlns:sodipodi="http://sodipodi.sourceforge.net/DTD/sodipodi-0.dtd"
   xmlns="http://www.w3.org/2000/svg"
   xmlns:svg="http://www.w3.org/2000/svg">
  <defs
     id="defs119" />
  <sodipodi:namedview
     id="namedview119"
     pagecolor="#ffffff"
     bordercolor="#000000"
     borderopacity="0.25"
     inkscape:showpageshadow="2"
     inkscape:pageopacity="0.0"
     inkscape:pagecheckerboard="0"
     inkscape:deskcolor="#d1d1d1"
     inkscape:zoom="0.45945117"
     inkscape:cx="442.91976"
     inkscape:cy="67.471806"
     inkscape:window-width="1440"
     inkscape:window-height="791"
     inkscape:window-x="0"
     inkscape:window-y="25"
     inkscape:window-maximized="0"
     inkscape:current-layer="g151" />
  <g
     id="g151"
     transform="translate(14.40845,19.484108)">
    <g
       id="g150"
       transform="translate(-191.7341,-285.93412)">
      <path
         style="fill:none;fill-opacity:1;stroke:#071d46;stroke-width:5;stroke-linecap:round;stroke-dasharray:none;stroke-opacity:1"
         d="m 345.25638,394.03571 56.7095,-41.4357"
         id="path148"
         sodipodi:nodetypes="cc" />
      <path
         style="fill:none;fill-opacity:1;stroke:#071d46;stroke-width:5;stroke-linecap:round;stroke-dasharray:none;stroke-opacity:1"
         d="M 345.25638,394.03571 367,464.16589"
         id="path146"
         sodipodi:nodetypes="cc" />
      <path
         style="fill:none;fill-opacity:1;stroke:#071d46;stroke-width:5;stroke-linecap:round;stroke-dasharray:none;stroke-opacity:1"
         d="m 275.70319,415.10953 1.14682,50.37457"
         id="path149"
         sodipodi:nodetypes="cc" />
      <path
         style="fill:none;fill-opacity:1;stroke:#1460af;stroke-width:5;stroke-linecap:round;stroke-dasharray:none;stroke-opacity:1"
         d="M 234.73733,440.80115 208.25,365.81589"
         id="path133"
         sodipodi:nodetypes="cc" />
      <path
         d="m 331.5,385.6 c 0,-0.2 0.35,-0.9 0.8,-1.5 0.75,-1.1 0.75,-1.25 -0.15,-2.25 -0.5,-0.6 -1.05,-1.2 -1.2,-1.35 -0.6,-0.5 -12.75,-14.75 -14.15,-16.65 -2.1,-2.75 -2.75,-2.95 -5.6,-1.9 -1.35,0.5 -3.4,1.1 -4.55,1.3 -1.95,0.3 -2.15,0.25 -2.15,-0.7 0,-0.7 0.3,-1.05 0.95,-1.05 0.5,0 1.9,-0.35 3.05,-0.75 1.2,-0.4 3.35,-0.9 4.85,-1.05 2.6,-0.35 2.65,-0.3 2.65,0.95 0,1 0.3,1.3 1.3,1.45 0.75,0.1 1.6,0.6 1.9,1.15 0.3,0.55 0.85,1.2 1.2,1.4 0.3,0.2 0.6,0.95 0.6,1.6 0,0.85 0.3,1.25 0.9,1.25 1.25,0 2.1,0.95 2.1,2.35 0,0.75 0.3,1.15 0.9,1.15 1.3,0 2.1,1 2.1,2.55 0,1.15 0.25,1.4 1.4,1.55 1.05,0.1 1.4,0.45 1.5,1.55 0.1,0.8 0.45,1.35 0.95,1.35 0.4,0 1.3,0.5 1.95,1.15 0.95,0.9 1.2,1.6 1.2,4 0,2.7 -0.05,2.85 -1.25,2.85 -0.7,0 -1.25,-0.15 -1.25,-0.4 z"
         id="path70"
         style="fill:#119097" />
      <circle
         style="fill:#1460af;fill-opacity:1;stroke-width:20"
         id="circle121"
         cx="208.35001"
         cy="471.56589"
         r="16.515896" />
      <circle
         style="fill:#1460af;fill-opacity:1;stroke-width:20"
         id="circle122"
         cx="276.85001"
         cy="465.4841"
         r="16.515896" />
      <circle
         style="fill:#1460af;fill-opacity:1;stroke-width:20"
         id="circle123"
         cx="301.7341"
         cy="530.45001"
         r="16.515896" />
      <circle
         style="fill:#1460af;fill-opacity:1;stroke-width:20"
         id="circle124"
         cx="367"
         cy="464.16589"
         r="16.515896" />
      <circle
         style="fill:#1460af;fill-opacity:1;stroke-width:20"
         id="circle125"
         cx="401.75"
         cy="476.0159"
         r="16.515896" />
      <circle
         style="fill:#1460af;fill-opacity:1;stroke-width:20"
         id="circle126"
         cx="401.96588"
         cy="352.60001"
         r="16.515896" />
      <circle
         style="fill:#071d46;fill-opacity:1;stroke-width:20"
         id="circle127"
         cx="208.25"
         cy="365.81589"
         r="16.515896" />
      <circle
         style="fill:#071d46;fill-opacity:1;stroke-width:20"
         id="circle128"
         cx="275.70319"
         cy="415.10953"
         r="16.515896" />
      <circle
         style="fill:#071d46;fill-opacity:1;stroke-width:20"
         id="circle129"
         cx="304.25"
         cy="346.83411"
         r="16.515896" />
      <circle
         style="fill:#071d46;fill-opacity:1;stroke-width:20"
         id="circle130"
         cx="345.25638"
         cy="394.03571"
         r="16.515896" />
      <circle
         style="fill:#071d46;fill-opacity:1;stroke-width:20"
         id="circle131"
         cx="303.81589"
         cy="302.45001"
         r="16.515896" />
      <path
         style="fill:none;fill-opacity:1;stroke:#1460af;stroke-width:5;stroke-linecap:round;stroke-dasharray:none;stroke-opacity:1"
         d="m 208.28213,399.78896 0.0364,38.50986"
         id="path131"
         sodipodi:nodetypes="cc" />
      <path
         style="fill:none;fill-opacity:1;stroke:#1460af;stroke-width:5;stroke-linecap:round;stroke-dasharray:none;stroke-opacity:1"
         d="m 234.73733,440.80115 -26.38732,30.76474"
         id="path132"
         sodipodi:nodetypes="cc" />
      <path
         style="fill:none;fill-opacity:1;stroke:#1460af;stroke-width:5;stroke-linecap:round;stroke-dasharray:none;stroke-opacity:1"
         d="M 274.23543,513.11049 236.4986,489.31522"
         id="path134"
         sodipodi:nodetypes="cc" />
      <path
         style="fill:none;fill-opacity:1;stroke:#1460af;stroke-width:5;stroke-linecap:round;stroke-dasharray:none;stroke-opacity:1"
         d="M 301.7341,530.45001 276.85001,465.4841"
         id="path135"
         sodipodi:nodetypes="cc" />
      <path
         style="fill:none;fill-opacity:1;stroke:#1460af;stroke-width:5;stroke-linecap:round;stroke-dasharray:none;stroke-opacity:1"
         d="m 367,464.16589 -90.14999,1.31821"
         id="path136"
         sodipodi:nodetypes="cc" />
      <path
         style="fill:none;fill-opacity:1;stroke:#1460af;stroke-width:5;stroke-linecap:round;stroke-dasharray:none;stroke-opacity:1"
         d="m 367,464.16589 34.75,11.85001"
         id="path137"
         sodipodi:nodetypes="cc" />
      <path
         style="fill:none;fill-opacity:1;stroke:#1460af;stroke-width:5;stroke-linecap:round;stroke-dasharray:none;stroke-opacity:1"
         d="m 329.97734,515.0785 36.2434,-19.72564"
         id="path138"
         sodipodi:nodetypes="cc" />
      <path
         style="fill:none;fill-opacity:1;stroke:#1460af;stroke-width:5;stroke-linecap:round;stroke-dasharray:none;stroke-opacity:1"
         d="m 401.90897,385.134 -0.0977,55.86112"
         id="path139"
         sodipodi:nodetypes="cc" />
      <path
         style="fill:none;fill-opacity:1;stroke:#1460af;stroke-width:5;stroke-linecap:round;stroke-dasharray:none;stroke-opacity:1"
         d="M 371.52383,337.35283 331.05104,317.08166"
         id="path140"
         sodipodi:nodetypes="cc" />
      <path
         style="fill:none;fill-opacity:1;stroke:#1460af;stroke-width:5;stroke-linecap:round;stroke-dasharray:none;stroke-opacity:1"
         d="m 238.63081,345.74191 39.23897,-25.92697"
         id="path141"
         sodipodi:nodetypes="cc" />
      <path
         style="fill:none;fill-opacity:1;stroke:#1460af;stroke-width:5;stroke-linecap:round;stroke-dasharray:none;stroke-opacity:1"
         d="m 239.98034,359.54195 33.2207,-6.56863"
         id="path142"
         sodipodi:nodetypes="cc" />
      <path
         style="fill:none;fill-opacity:1;stroke:#071d46;stroke-width:5;stroke-linecap:round;stroke-dasharray:none;stroke-opacity:1"
         d="M 275.70319,415.10953 304.25,346.83411"
         id="path143"
         sodipodi:nodetypes="cc" />
      <path
         style="fill:none;fill-opacity:1;stroke:#071d46;stroke-width:5;stroke-linecap:round;stroke-dasharray:none;stroke-opacity:1"
         d="M 275.70319,415.10953 208.25,365.81589"
         id="path144"
         sodipodi:nodetypes="cc" />
      <path
         style="fill:none;fill-opacity:1;stroke:#071d46;stroke-width:5;stroke-linecap:round;stroke-dasharray:none;stroke-opacity:1"
         d="m 275.70319,415.10953 61.53849,33.06637"
         id="path145"
         sodipodi:nodetypes="cc" />
      <path
         style="fill:none;fill-opacity:1;stroke:#071d46;stroke-width:5;stroke-linecap:round;stroke-dasharray:none;stroke-opacity:1"
         d="M 345.25638,394.03571 304.25,346.83411"
         id="path147"
         sodipodi:nodetypes="cc" />
    </g>
    <text
       xml:space="preserve"
       style="font-style:normal;font-variant:normal;font-weight:normal;font-stretch:normal;font-size:142.517px;font-family:Avenir;-inkscape-font-specification:Avenir;text-align:start;writing-mode:lr-tb;direction:ltr;text-anchor:start;fill:#071d46;fill-opacity:1;stroke:none;stroke-width:11.1341;stroke-linecap:round;stroke-dasharray:none;stroke-opacity:1"
       x="264.84567"
       y="168.14038"
       id="text149"><tspan
         sodipodi:role="line"
         id="tspan149"
         x="264.84567"
         y="168.14038"
         style="font-style:normal;font-variant:normal;font-weight:500;font-stretch:normal;font-size:142.517px;font-family:Figtree;-inkscape-font-specification:'Figtree Medium';stroke-width:11.1341"><tspan
           style="font-style:normal;font-variant:normal;font-weight:300;font-stretch:normal;font-family:Figtree;-inkscape-font-specification:'Figtree Light'"
           id="tspan3">data</tspan><tspan
           style="font-style:normal;font-variant:normal;font-weight:bold;font-stretch:normal;font-family:Figtree;-inkscape-font-specification:'Figtree Bold'"
           id="tspan2">sophos</tspan></tspan></text>
  </g>
</svg>
