<?xml version="1.0" encoding="UTF-8" standalone="no"?>
<!-- Created with Inkscape (http://www.inkscape.org/) -->

<svg
   width="165.12219mm"
   height="138.12015mm"
   viewBox="0 0 165.12219 138.12015"
   version="1.1"
   id="svg1"
   xml:space="preserve"
   inkscape:version="1.4.2 (ebf0e940, 2025-05-08)"
   sodipodi:docname="streamwave_logo.svg"
   xmlns:inkscape="http://www.inkscape.org/namespaces/inkscape"
   xmlns:sodipodi="http://sodipodi.sourceforge.net/DTD/sodipodi-0.dtd"
   xmlns:xlink="http://www.w3.org/1999/xlink"
   xmlns="http://www.w3.org/2000/svg"
   xmlns:svg="http://www.w3.org/2000/svg"><sodipodi:namedview
     id="namedview1"
     pagecolor="#ffffff"
     bordercolor="#000000"
     borderopacity="0.25"
     inkscape:showpageshadow="2"
     inkscape:pageopacity="0.0"
     inkscape:pagecheckerboard="0"
     inkscape:deskcolor="#d1d1d1"
     inkscape:document-units="mm"
     inkscape:zoom="0.6251264"
     inkscape:cx="224.75455"
     inkscape:cy="205.55843"
     inkscape:window-width="1472"
     inkscape:window-height="818"
     inkscape:window-x="0"
     inkscape:window-y="38"
     inkscape:window-maximized="1"
     inkscape:current-layer="layer1" /><defs
     id="defs1"><linearGradient
       id="linearGradient92"
       inkscape:label="left"><stop
         style="stop-color:#81b0c9;stop-opacity:0.6674757;"
         offset="0"
         id="stop91" /><stop
         style="stop-color:#2569a5;stop-opacity:1;"
         offset="1"
         id="stop92" /></linearGradient><linearGradient
       id="linearGradient85"
       inkscape:label="left"><stop
         style="stop-color:#89bbe3;stop-opacity:0.67718446;"
         offset="0"
         id="stop84" /><stop
         style="stop-color:#2569a5;stop-opacity:1;"
         offset="1"
         id="stop85" /></linearGradient><linearGradient
       id="linearGradient80"
       inkscape:label="left"><stop
         style="stop-color:#89bbe3;stop-opacity:0.63592231;"
         offset="0"
         id="stop79" /><stop
         style="stop-color:#2569a5;stop-opacity:1;"
         offset="1"
         id="stop80" /></linearGradient><linearGradient
       id="linearGradient70"
       inkscape:label="right"><stop
         style="stop-color:#4a89ba;stop-opacity:1;"
         offset="0"
         id="stop77" /><stop
         style="stop-color:#2569a5;stop-opacity:1;"
         offset="1"
         id="stop78" /></linearGradient><linearGradient
       inkscape:collect="always"
       xlink:href="#linearGradient70"
       id="linearGradient71"
       x1="100.76667"
       y1="111.73019"
       x2="178.82149"
       y2="111.73019"
       gradientUnits="userSpaceOnUse" /><linearGradient
       inkscape:collect="always"
       xlink:href="#linearGradient70"
       id="linearGradient73"
       x1="78.541672"
       y1="165.71906"
       x2="178.97226"
       y2="165.71906"
       gradientUnits="userSpaceOnUse" /><linearGradient
       inkscape:collect="always"
       xlink:href="#linearGradient70"
       id="linearGradient75"
       x1="55.522919"
       y1="202.95959"
       x2="178.6916"
       y2="202.95959"
       gradientUnits="userSpaceOnUse" /><linearGradient
       inkscape:collect="always"
       xlink:href="#linearGradient92"
       id="linearGradient77"
       x1="13.984931"
       y1="206.28754"
       x2="87.008331"
       y2="206.28754"
       gradientUnits="userSpaceOnUse"
       spreadMethod="reflect" /><linearGradient
       inkscape:collect="always"
       xlink:href="#linearGradient92"
       id="linearGradient83"
       x1="13.850077"
       y1="124.53705"
       x2="124.57916"
       y2="124.53705"
       gradientUnits="userSpaceOnUse" /><linearGradient
       inkscape:collect="always"
       xlink:href="#linearGradient92"
       id="linearGradient87"
       gradientUnits="userSpaceOnUse"
       x1="13.850675"
       y1="157.7856"
       x2="86.743752"
       y2="157.7856" /></defs><g
     inkscape:label="Layer 1"
     inkscape:groupmode="layer"
     id="layer1"
     transform="translate(-13.850077,-90.36801)"><path
       style="fill:#ffffff;stroke:none"
       d="m 87.00833,216.7625 v -0.52917 c -3.89172,-2.52181 -7.526271,-5.44305 -11.112495,-8.37565 -1.468588,-1.20093 -3.289011,-3.35212 -5.291667,-3.531 -1.432478,-0.12795 -2.947397,0.79885 -4.233333,1.31946 -2.521753,1.02091 -5.063256,1.96669 -7.672916,2.73878 -9.971419,2.95016 -20.866167,3.73409 -30.691665,-0.20581 -3.191056,-1.27958 -8.149676,-3.43552 -9.631562,-6.78526 -0.633735,-1.43255 -0.422293,-3.21121 -0.422604,-4.73968 13.609779,11.44403 33.080521,10.3451 48.418747,3.17499 -2.610338,-3.10772 -5.752144,-5.85665 -8.731249,-8.60851 -1.206031,-1.11403 -2.575691,-2.81982 -4.233334,-3.2317 -2.444141,-0.60731 -6.297443,1.56994 -8.731249,2.12262 -5.13155,1.16524 -10.450315,1.36528 -15.610416,0.25123 -3.947417,-0.85222 -7.493405,-2.49376 -10.847076,-4.70659 -0.947689,-0.6253 -2.666217,-1.76354 -3.527062,-0.39398 -0.788643,1.2547 -0.44237,3.36552 -0.442512,4.77735 l -1.6e-5,10.58333 c 0,3.69598 -0.859835,8.68978 0.529942,12.17084 2.424614,6.07308 10.905467,10.13922 16.667974,12.20943 18.981003,6.81902 38.580799,0.90451 55.562493,-8.24068 z"
       id="path6" /><path
       style="fill:#ffffff;stroke:none"
       d="m 55.522919,181.57292 c 4.451044,5.31505 9.982417,9.89978 15.081249,14.58357 20.015642,18.38631 44.138812,33.38984 72.231242,32.27311 9.51664,-0.37831 19.52289,-2.82625 27.51667,-8.16874 2.77757,-1.85633 6.21414,-4.31017 7.59182,-7.46711 0.9459,-2.16754 0.61026,-4.8365 0.61026,-7.14375 v -13.75833 c 0,-1.55274 0.69238,-5.63275 -1.03077,-6.48966 -1.53285,-0.76226 -3.80655,1.3229 -5.05464,2.01058 -3.5737,1.96905 -7.57806,3.12725 -11.62226,3.60452 -6.30641,0.74423 -12.70392,-0.009 -18.80483,-1.7052 -2.72129,-0.75639 -6.99492,-3.4973 -9.78958,-2.91805 -2.09272,0.43374 -3.9744,2.63546 -5.55625,3.95463 -3.69549,3.08184 -7.33909,6.2289 -11.1125,9.21609 v 0.26458 c 18.69201,9.26837 42.03863,8.83267 59.26667,-3.17499 -3.3e-4,1.57044 0.25285,3.4794 -0.54476,4.90183 -1.19219,2.12608 -4.0043,3.6325 -6.06983,4.77274 -5.89219,3.2527 -12.63065,5.0939 -19.31458,5.71748 -21.40428,1.9969 -41.28766,-7.36956 -58.20833,-19.71353 -3.86889,-2.82244 -7.53857,-5.90183 -11.112501,-9.08673 -1.986852,-1.77058 -3.987884,-4.16856 -6.349998,-5.42763 -1.893109,-1.00908 -3.994022,0.20099 -5.820833,0.82867 -3.884937,1.33477 -7.872225,2.19098 -11.906249,2.92592"
       id="path5" /><path
       style="fill:#ffffff;stroke:none"
       d="m 86.74375,162.7875 v -0.26458 l -11.112499,-9.78959 h -0.264583 c -12.404289,7.69374 -28.299805,12.32186 -42.862498,9.51486 -4.234782,-0.81626 -11.69553,-2.63156 -14.007328,-6.70915 -0.804497,-1.41899 -0.544435,-3.35278 -0.544754,-4.92237 16.561924,12.06751 36.600025,6.38586 53.44583,-1.32292 v -0.52917 c -2.654295,-2.25349 -5.106955,-4.74814 -7.672916,-7.10232 -1.200064,-1.10102 -2.601529,-2.67705 -4.233333,-3.10199 -1.458898,-0.37992 -2.959396,0.62073 -4.233333,1.20046 -2.581141,1.17458 -5.224786,2.15027 -7.9375,2.9758 -7.401938,2.25257 -15.7692,2.98917 -23.283332,0.82721 -1.950616,-0.56122 -8.22977,-4.77145 -9.450339,-2.06644 -1.4283,3.16537 -0.339244,8.85168 -0.339244,12.29437 0,3.56977 -1.126768,9.41476 0.450086,12.66143 0.843008,1.73572 2.727498,2.77261 4.312596,3.73195 3.948317,2.38959 8.238611,4.04419 12.699817,5.19348 19.506133,5.02511 38.94993,-1.52787 55.03333,-12.59103"
       id="path4" /><path
       style="fill:#ffffff;stroke:none"
       d="m 78.541668,173.9 c 2.157551,2.97362 5.356632,5.31844 8.202082,7.60868 1.0851,0.87336 2.45366,2.21183 3.96875,2.04557 1.93727,-0.21258 3.82878,-2.24538 5.29167,-3.39071 3.82297,-2.99313 7.58687,-6.05961 11.37708,-9.09376 11.42813,-9.14843 23.56348,-19.07852 37.83541,-23.31528 7.10315,-2.10864 15.02276,-2.97795 22.225,-0.80395 4.13686,1.24871 7.3771,2.68593 7.40834,7.37028 -3.24809,-1.36882 -6.55264,-2.44865 -10.05417,-2.95217 -28.10006,-4.04076 -49.19023,21.50272 -69.85,36.02509 2.65754,3.17083 7.03919,5.40878 10.58334,7.47067 1.29165,0.75145 2.92197,1.95571 4.49791,1.77813 1.70917,-0.19257 3.23076,-1.7947 4.49792,-2.82792 2.92966,-2.38878 5.82448,-4.8194 8.73125,-7.23588 9.24091,-7.68229 18.76713,-16.34899 30.42708,-20.0751 5.89345,-1.88333 12.35136,-2.33419 18.25625,-0.22612 1.54248,0.55066 4.95272,2.92889 6.17205,0.81305 1.63123,-2.83056 0.44253,-9.02563 0.44253,-12.24058 0,-3.28725 1.00367,-8.62641 -0.60489,-11.5835 -2.36016,-4.33875 -10.5441,-6.49293 -15.00552,-7.45266 -16.33936,-3.5149 -32.43092,2.33368 -46.0375,11.22541 -12.9392,8.45562 -24.39539,20.10764 -38.364582,26.86075"
       id="path3" /><path
       style="fill:#ffffff;stroke:none"
       d="m 100.76667,108.8125 c 2.37307,3.13426 5.80226,5.58526 8.73125,8.18565 1.11608,0.99086 2.58595,2.64333 4.23333,2.49821 1.46162,-0.12874 2.82244,-1.43883 3.96875,-2.24753 2.58928,-1.82669 5.22791,-3.60829 7.9375,-5.25215 10.81143,-6.55908 23.90724,-11.92986 36.78037,-9.76018 5.51522,0.92955 12.40855,2.72811 12.43213,9.22184 -19.81317,-11.6683 -40.85038,1.25459 -57.41459,12.17083 v 0.52917 c 2.69164,2.09946 5.25747,4.35504 7.9375,6.46969 1.10582,0.87253 2.47487,2.20019 3.96875,2.2517 1.55227,0.0535 3.03683,-1.31573 4.23334,-2.14468 2.47031,-1.71148 5.02815,-3.25784 7.67291,-4.6849 7.52613,-4.06096 16.01282,-6.56302 24.60625,-5.44339 3.2472,0.42308 6.03137,1.65072 8.9947,2.94754 1.00227,0.43861 2.37794,0.8895 3.16055,-0.17675 0.72707,-0.99057 0.54162,-2.56157 0.54419,-3.71718 l 5.6e-4,-8.20203 c 0,-3.13914 0.89289,-7.97085 -0.58496,-10.82396 -1.89967,-3.66746 -7.91458,-5.85456 -11.58587,-7.15266 -12.4792,-4.41242 -25.66471,-3.4599 -38.1,0.61051 -10.10075,3.30624 -18.59523,9.16281 -27.51666,14.72027"
       id="path2" /><path
       style="fill:#ffffff;stroke:none"
       d="M 105,148.5 C 85.10698,132.61819 69.028247,108.63527 41.500003,106.53545 c -3.686887,-0.28124 -7.48395,0.0485 -11.112499,0.72973 -4.350251,0.81678 -8.612887,2.20127 -12.435416,4.45774 0.01709,-4.70409 2.761774,-6.2093 6.879166,-7.85747 5.920003,-2.36973 12.717198,-3.18567 19.049999,-2.5159 19.930234,2.1079 34.369686,15.43034 48.418747,28.46714 3.54076,3.28564 7.01974,6.63595 10.58333,9.89798 1.77145,1.62154 3.64251,3.77784 5.82084,4.84691 1.84397,0.90497 3.54056,-0.55197 5.02708,-1.52404 3.46085,-2.26312 7.03058,-4.56422 10.84791,-6.17921 v -0.52916 C 110.92491,127.38855 100.23131,114.45339 86.74375,105.19564 71.459752,94.70484 52.29701,87.49284 33.562503,91.4841 c -5.003223,1.06591 -9.904595,2.72348 -14.287418,5.39787 -1.668087,1.01786 -3.704191,2.16117 -4.545487,4.0191 -1.641756,3.62568 -0.481677,9.7988 -0.481677,13.73227 0,2.75264 -0.876602,7.34545 0.339244,9.85923 1.106404,2.2875 5.110561,-0.7528 6.539922,-1.35874 7.068068,-2.99632 14.368317,-3.10858 21.695833,-1.02855 13.547719,3.84571 23.998598,14.89429 33.866665,24.31591 3.232274,3.08605 6.434355,6.20358 9.789585,9.15797 1.21851,1.07294 2.79108,2.90851 4.49791,3.11114 1.56949,0.18634 3.08706,-1.32107 4.23334,-2.19327 3.24385,-2.46828 7.27037,-4.76231 9.78958,-7.99703"
       id="path1" /></g></svg>
